<svg width="60" height="61" viewBox="0 0 60 61" fill="none" xmlns="http://www.w3.org/2000/svg">
<g clip-path="url(#clip0)">
<path d="M49.9896 9.3385H42.1005C35.9596 9.3385 30.9636 14.3345 30.9636 20.4754V27.1336H24.7206C24.0738 27.1336 23.5487 27.6582 23.5487 28.3055V37.3216C23.5487 37.9689 24.0738 38.4935 24.7206 38.4935H30.9636V58.1562H3.51563C2.86926 58.1562 2.34375 57.6307 2.34375 56.9844V4.01562C2.34375 3.36926 2.86926 2.84375 3.51563 2.84375H5.85938C6.50665 2.84375 7.03125 2.31915 7.03125 1.67188C7.03125 1.0246 6.50665 0.5 5.85938 0.5H3.51563C1.577 0.5 0 2.077 0 4.01562V56.9844C0 58.923 1.577 60.5 3.51563 60.5H32.1355C32.7827 60.5 33.3073 59.9754 33.3073 59.3281V37.3216C33.3073 36.6743 32.7827 36.1497 32.1355 36.1497H25.8929V29.4769H32.1355C32.7827 29.4769 33.3073 28.9523 33.3073 28.305V20.4754C33.3073 15.6268 37.2519 11.6818 42.101 11.6818H48.8182V18.3542H42.101C40.9511 18.3542 39.9797 19.3255 39.9797 20.4754V28.305C39.9797 28.9523 40.5043 29.4769 41.1516 29.4769H48.6539L47.7759 36.1497H41.1516C40.5048 36.1497 39.9797 36.6743 39.9797 37.3216V59.3281C39.9797 59.9754 40.5048 60.5 41.1516 60.5H44.7656C45.4129 60.5 45.9375 59.9754 45.9375 59.3281C45.9375 58.6808 45.4129 58.1562 44.7656 58.1562H42.3235V38.4935H48.8036C49.3918 38.4935 49.8889 38.0572 49.9654 37.4745L51.1519 28.4579C51.1958 28.1237 51.0938 27.7864 50.8713 27.5328C50.6488 27.2787 50.3275 27.1336 49.9901 27.1336H42.3239V20.6984H49.9901C50.6374 20.6984 51.162 20.1738 51.162 19.5265V10.5104C51.1615 9.8631 50.6369 9.3385 49.9896 9.3385Z" fill="black" fill-opacity="0.74"/>
<path d="M56.4844 0.5H15.2344C14.5871 0.5 14.0625 1.0246 14.0625 1.67188C14.0625 2.31915 14.5871 2.84375 15.2344 2.84375H56.4844C57.1307 2.84375 57.6562 3.36926 57.6562 4.01562V56.9844C57.6562 57.6307 57.1307 58.1562 56.4844 58.1562H54.1406C53.4933 58.1562 52.9688 58.6808 52.9688 59.3281C52.9688 59.9754 53.4933 60.5 54.1406 60.5H56.4844C58.423 60.5 60 58.923 60 56.9844V4.01562C60 2.077 58.423 0.5 56.4844 0.5Z" fill="black" fill-opacity="0.74"/>
<path d="M49.4536 58.1562H49.4527C48.8054 58.1562 48.2812 58.6808 48.2812 59.3281C48.2812 59.9754 48.8063 60.5 49.4536 60.5C50.1009 60.5 50.6255 59.9754 50.6255 59.3281C50.6255 58.6808 50.1009 58.1562 49.4536 58.1562Z" fill="black" fill-opacity="0.74"/>
<path d="M10.5473 2.84375C11.1946 2.84375 11.7192 2.31915 11.7192 1.67188C11.7192 1.0246 11.1946 0.5 10.5473 0.5H10.5464C9.89914 0.5 9.375 1.0246 9.375 1.67188C9.375 2.31915 9.90005 2.84375 10.5473 2.84375Z" fill="black" fill-opacity="0.74"/>
</g>
<defs>
<clipPath id="clip0">
<rect width="60" height="60" fill="white" transform="translate(0 0.5)"/>
</clipPath>
</defs>
</svg>
