<svg width="60" height="61" viewBox="0 0 60 61" fill="none" xmlns="http://www.w3.org/2000/svg">
<g clip-path="url(#clip0)">
<path d="M42.4219 0.5H17.5781C7.88555 0.5 0 8.38555 0 18.0781V42.9219C0 52.6145 7.88555 60.5 17.5781 60.5H42.4219C52.1145 60.5 60 52.6145 60 42.9219V18.0781C60 8.38555 52.1145 0.5 42.4219 0.5ZM57.6562 42.9219C57.6562 51.3221 50.8221 58.1562 42.4219 58.1562H17.5781C9.17789 58.1562 2.34375 51.3221 2.34375 42.9219V18.0781C2.34375 9.67789 9.17789 2.84375 17.5781 2.84375H42.4219C50.8221 2.84375 57.6562 9.67789 57.6562 18.0781V42.9219Z" fill="black" fill-opacity="0.74"/>
<path d="M42.4219 5.65625H17.5781C10.7286 5.65625 5.15625 11.2286 5.15625 18.0781V42.9219C5.15625 49.7714 10.7286 55.3437 17.5781 55.3437H24.7266C25.3738 55.3437 25.8984 54.8191 25.8984 54.1719C25.8984 53.5246 25.3738 53 24.7266 53H17.5781C12.0211 53 7.5 48.4789 7.5 42.9219V18.0781C7.5 12.5211 12.0211 8 17.5781 8H42.4219C47.9789 8 52.5 12.5211 52.5 18.0781V42.9219C52.5 48.4789 47.9789 53 42.4219 53H35.3516C34.7044 53 34.1797 53.5246 34.1797 54.1719C34.1797 54.8191 34.7044 55.3437 35.3516 55.3437H42.4219C49.2714 55.3437 54.8438 49.7714 54.8438 42.9219V18.0781C54.8438 11.2286 49.2714 5.65625 42.4219 5.65625Z" fill="black" fill-opacity="0.74"/>
<path d="M30.8285 53.3434C30.6105 53.1254 30.3082 53 30 53C29.6918 53 29.3895 53.1254 29.1715 53.3434C28.9535 53.5613 28.8281 53.8637 28.8281 54.1719C28.8281 54.4801 28.9535 54.7824 29.1715 55.0004C29.3895 55.2184 29.6918 55.3437 30 55.3437C30.3082 55.3437 30.6105 55.2184 30.8285 55.0004C31.0465 54.7824 31.1719 54.4801 31.1719 54.1719C31.1719 53.8637 31.0465 53.5613 30.8285 53.3434Z" fill="black" fill-opacity="0.74"/>
<path d="M20.6053 18.7466C20.1627 18.2743 19.4212 18.2502 18.9489 18.6926L18.8969 18.7415C18.4262 19.1856 18.4046 19.9273 18.8489 20.398C19.0794 20.6424 19.3901 20.7656 19.7014 20.7656C19.99 20.7656 20.2791 20.6597 20.5055 20.4461L20.5513 20.4031C21.0236 19.9606 21.0478 19.2189 20.6053 18.7466Z" fill="black" fill-opacity="0.74"/>
<path d="M30 14.3281C27.4261 14.3281 24.8644 14.9482 22.5918 16.1212C22.0167 16.418 21.7911 17.1249 22.088 17.7001C22.3849 18.2751 23.0918 18.5006 23.6668 18.2039C25.6362 17.1873 27.767 16.6719 30 16.6719C37.6248 16.6719 43.8281 22.8752 43.8281 30.5C43.8281 38.1248 37.6248 44.3281 30 44.3281C22.3752 44.3281 16.1719 38.1248 16.1719 30.5C16.1719 28.1071 16.7924 25.7496 17.9664 23.6823C18.2859 23.1195 18.0888 22.4042 17.526 22.0845C16.9631 21.7651 16.2479 21.9621 15.9282 22.5249C14.5543 24.9444 13.8281 27.7021 13.8281 30.5C13.8281 39.4171 21.0829 46.6719 30 46.6719C38.9171 46.6719 46.1719 39.4171 46.1719 30.5C46.1719 21.5829 38.9171 14.3281 30 14.3281Z" fill="black" fill-opacity="0.74"/>
<path d="M30 19.9531C24.1845 19.9531 19.4531 24.6845 19.4531 30.5C19.4531 36.3155 24.1845 41.0469 30 41.0469C35.8155 41.0469 40.5469 36.3155 40.5469 30.5C40.5469 24.6845 35.8155 19.9531 30 19.9531ZM30 38.7031C25.4768 38.7031 21.7969 35.0232 21.7969 30.5C21.7969 25.9768 25.4768 22.2969 30 22.2969C34.5232 22.2969 38.2031 25.9768 38.2031 30.5C38.2031 35.0232 34.5232 38.7031 30 38.7031Z" fill="black" fill-opacity="0.74"/>
<path d="M45.3809 10.666C42.9254 10.666 40.9277 12.6637 40.9277 15.1191C40.9277 17.5746 42.9254 19.5723 45.3809 19.5723C47.8363 19.5723 49.834 17.5746 49.834 15.1191C49.834 12.6637 47.8363 10.666 45.3809 10.666ZM45.3809 17.2285C44.2178 17.2285 43.2715 16.2822 43.2715 15.1191C43.2715 13.9561 44.2178 13.0098 45.3809 13.0098C46.5439 13.0098 47.4902 13.9561 47.4902 15.1191C47.4902 16.2822 46.5439 17.2285 45.3809 17.2285Z" fill="black" fill-opacity="0.74"/>
</g>
<defs>
<clipPath id="clip0">
<rect width="60" height="60" fill="white" transform="translate(0 0.5)"/>
</clipPath>
</defs>
</svg>
