<svg width="60" height="61" viewBox="0 0 60 61" fill="none" xmlns="http://www.w3.org/2000/svg">
<g clip-path="url(#clip0)">
<path d="M51.1759 9.20483C45.5623 3.59174 38.0985 0.5 30.1599 0.5C23.916 0.5 17.9399 2.41528 12.878 6.0394C12.3515 6.41614 12.2302 7.1481 12.607 7.67453C12.9842 8.20096 13.7161 8.32181 14.2421 7.94507C18.904 4.60797 24.4081 2.84375 30.1599 2.84375C45.2556 2.84375 57.5369 15.1251 57.5369 30.2212C57.5369 45.3169 45.2556 57.5982 30.1599 57.5982C25.5612 57.5982 21.0133 56.436 17.0079 54.2369C16.742 54.0913 16.4302 54.0542 16.1382 54.133L3.09282 57.6587L6.64964 44.9649C6.7357 44.6582 6.69313 44.33 6.532 44.0558C4.07884 39.8755 2.78245 35.0918 2.78245 30.2212C2.78245 24.469 4.54668 18.9648 7.88377 14.3034C8.26051 13.7774 8.1392 13.0455 7.61323 12.6687C7.08681 12.292 6.35484 12.4128 5.9781 12.9393C2.35399 18.0008 0.438704 23.9769 0.438704 30.2212C0.438704 35.3404 1.75844 40.3717 4.26012 44.8065L0.279402 59.0118C0.165419 59.4178 0.278944 59.8536 0.575117 60.153C0.798506 60.3778 1.09926 60.5 1.40779 60.5C1.50987 60.5 1.61241 60.4867 1.71358 60.4593L16.2993 56.5175C20.546 58.7591 25.3278 59.942 30.1595 59.942C38.0985 59.942 45.5623 56.8507 51.1754 51.2367C56.789 45.6236 59.8807 38.1598 59.8807 30.2208C59.8807 22.2822 56.7894 14.8188 51.1759 9.20483Z" fill="black" fill-opacity="0.74"/>
<path d="M49.3674 44.4265C49.9057 44.7859 50.6335 44.6408 50.9929 44.1025C53.7395 39.9872 55.1915 35.187 55.1915 30.2208C55.1915 23.5338 52.5877 17.2468 47.86 12.519C43.1322 7.79126 36.8457 5.1875 30.1582 5.1875C23.4708 5.1875 17.1838 7.79126 12.4561 12.519C7.72827 17.2468 5.12451 23.5338 5.12451 30.2212C5.12451 34.6753 6.30966 39.0487 8.55179 42.8692L9.30801 44.1583L7.01691 52.3349C6.90292 52.7405 7.01599 53.1762 7.31262 53.4756C7.60925 53.775 8.04413 53.8922 8.45108 53.7823L16.8922 51.5008L18.1337 52.1824C21.7949 54.1925 25.9528 55.2545 30.1578 55.2545C35.1245 55.2545 39.9246 53.8025 44.0395 51.0554C44.5778 50.6965 44.7229 49.9687 44.3636 49.4304C44.0042 48.892 43.2768 48.7469 42.7385 49.1063C39.01 51.5951 34.6599 52.9107 30.1578 52.9107C26.346 52.9107 22.5781 51.9485 19.2616 50.128L17.6064 49.2189C17.3408 49.0733 17.0291 49.0362 16.7366 49.115L9.82986 50.9817L11.6994 44.3107C11.785 44.004 11.7429 43.6758 11.5817 43.4016L10.5728 41.6827C8.54172 38.2216 7.46826 34.2582 7.46826 30.2208C7.46826 17.7096 17.6471 7.53125 30.1582 7.53125C42.6694 7.53125 52.8477 17.7096 52.8477 30.2212C52.8477 34.7224 51.5321 39.0725 49.0433 42.8015C48.6839 43.3398 48.829 44.0672 49.3674 44.4265Z" fill="black" fill-opacity="0.74"/>
<path d="M25.8754 26.6211L25.9527 26.5309C27.0024 25.3526 26.7373 23.9688 26.3299 23.0157C25.728 21.6081 24.1533 18.0101 24.004 17.6695C23.7715 17.0817 22.9956 16.1506 21.4351 16.1181C20.2183 16.0934 19.8182 16.1277 19.7249 16.1392C19.7152 16.1401 19.7056 16.1415 19.6965 16.1428C19.517 16.1689 15.2964 16.8519 14.5677 23.1778C14.2326 26.0859 15.5793 29.5503 18.5704 33.4756C21.8818 37.8212 24.926 40.4089 29.4276 42.7041C31.6693 43.8472 34.9437 45.1852 37.9919 45.1852C38.0908 45.1852 38.1897 45.1839 38.2876 45.1807C41.7112 45.0809 43.5396 43.6581 44.4702 42.4821C45.458 41.2338 45.6645 40.0038 45.6942 39.7905C45.7139 39.655 45.7615 39.2274 45.7918 38.1137C45.8339 36.5532 44.9403 35.7338 44.3644 35.4733C44.039 35.3117 40.6836 33.6482 39.308 32.9812C38.3792 32.5303 37.0137 32.2731 35.7846 33.6065C35.7782 33.6134 35.7722 33.6203 35.7663 33.6262C35.6001 33.7713 35.4358 33.9879 34.9363 34.6562C34.6287 35.0677 34.0149 35.889 33.7539 36.1632C33.2028 36.2021 31.3598 35.3905 28.7474 33.3676C27.1008 32.0923 25.3425 30.1069 24.3698 28.4251C24.3602 28.4013 24.3542 28.3578 24.357 28.3358C24.7603 27.9211 25.4167 27.1589 25.8754 26.6211ZM27.3123 35.2206C28.0932 35.8253 29.6245 36.9519 31.1049 37.7031C31.8048 38.0578 33.9348 39.1386 35.2481 37.9764C35.6106 37.6555 36.1256 36.9794 36.8132 36.0592C37.0114 35.7942 37.2549 35.4687 37.3492 35.3561C37.4106 35.3003 37.4614 35.2453 37.5076 35.195C37.7186 34.9661 37.8148 34.8617 38.2849 35.0897C39.6966 35.7745 43.2187 37.5213 43.345 37.5836C43.3885 37.6271 43.4562 37.7685 43.4485 38.0501C43.4224 39.0214 43.3844 39.3725 43.3766 39.4385C43.3716 39.4627 43.3738 39.4481 43.3711 39.4746C43.3574 39.5543 43.21 40.3398 42.5641 41.1111C41.6531 42.1997 40.1915 42.7806 38.2194 42.8378C35.5827 42.9161 32.5628 41.6723 30.4919 40.6163C26.2787 38.4675 23.5527 36.1471 20.4339 32.0547C17.8595 28.6764 16.6359 25.6991 16.8954 23.4456C17.3843 19.2025 19.7097 18.536 20.0215 18.4655C20.1313 18.4587 20.5031 18.4431 21.3865 18.4614C21.6681 18.4674 21.8058 18.542 21.8475 18.5873C21.9056 18.7201 23.5577 22.4939 24.1743 23.9367C24.4824 24.6577 24.2933 24.8701 24.2022 24.9722C24.1858 24.9905 24.1716 25.007 24.1592 25.0207L24.0919 25.0999C23.4149 25.8932 22.9384 26.4329 22.6756 26.7025C21.8104 27.5915 21.8924 28.822 22.3355 29.5892C23.4625 31.542 25.4162 33.7521 27.3123 35.2206Z" fill="black" fill-opacity="0.74"/>
<path d="M9.97081 11.206C10.2523 11.206 10.5348 11.1052 10.7591 10.9011C11.2379 10.4658 11.2736 9.72463 10.8383 9.24581C10.4025 8.76699 9.66182 8.73174 9.18254 9.16708L9.18208 9.16753C8.70326 9.60287 8.66847 10.3435 9.10381 10.8228C9.33498 11.0769 9.65221 11.206 9.97081 11.206Z" fill="black" fill-opacity="0.74"/>
<path d="M46.1639 46.3054L46.1635 46.3063C45.7281 46.7851 45.7638 47.5258 46.2426 47.9611C46.467 48.1653 46.7489 48.266 47.0305 48.266C47.3491 48.266 47.6668 48.1364 47.8979 47.8819C48.3337 47.4031 48.298 46.662 47.8192 46.2266C47.3404 45.7913 46.5992 45.8266 46.1639 46.3054Z" fill="black" fill-opacity="0.74"/>
</g>
<defs>
<clipPath id="clip0">
<rect width="60" height="60" fill="white" transform="translate(0 0.5)"/>
</clipPath>
</defs>
</svg>
