<svg width="60" height="61" viewBox="0 0 60 61" fill="none" xmlns="http://www.w3.org/2000/svg">
<path d="M48.0788 28.9932C47.6534 28.4675 46.8821 28.3863 46.3567 28.8118L45.9306 29.1566C45.405 29.5821 45.3239 30.3532 45.7494 30.8788C45.9915 31.1777 46.3451 31.3329 46.7019 31.3329C46.9725 31.3329 47.245 31.2436 47.4716 31.0601L47.8976 30.7153C48.4231 30.2898 48.5043 29.5188 48.0788 28.9932Z" fill="black" fill-opacity="0.74"/>
<path d="M44.574 31.8312C44.1486 31.3055 43.3774 31.2242 42.8519 31.6496L34.0971 38.6427C33.5715 39.0682 33.4904 39.8392 33.9159 40.3648C34.1578 40.6637 34.5114 40.8189 34.8683 40.8189C35.1389 40.8189 35.4113 40.7296 35.638 40.5462L44.3928 33.5531C44.9183 33.1277 44.9995 32.3569 44.574 31.8312Z" fill="black" fill-opacity="0.74"/>
<path d="M52.7041 7.8457H7.29586C3.27293 7.8457 0 11.1186 0 15.1414V45.8583C0 49.8812 3.27293 53.154 7.29586 53.154H52.7041C56.7272 53.154 60 49.8812 60 45.8583V15.1414C60 11.1186 56.7272 7.8457 52.7041 7.8457ZM49.2084 10.2946L29.9835 25.8346L10.7585 10.2946H49.2084ZM50.171 50.705H9.79594V22.1071L29.2153 37.7504C29.6637 38.1116 30.3033 38.1116 30.7516 37.7504L50.1709 22.1071V50.705H50.171ZM57.551 45.8582C57.551 48.5307 55.3767 50.7049 52.7041 50.7049H52.6201V19.5483C52.6201 19.0768 52.3495 18.6473 51.9241 18.4438C51.4985 18.2401 50.9944 18.2991 50.6275 18.5947L29.9835 35.2246L9.33949 18.5947C8.97223 18.2991 8.46785 18.2401 8.04281 18.4438C7.61742 18.6473 7.34684 19.0768 7.34684 19.5483V50.7049H7.29574C4.62328 50.705 2.44898 48.5307 2.44898 45.8583V15.1414C2.44898 12.6071 4.40461 10.5221 6.88582 10.3133L29.2138 28.3616C29.4382 28.5431 29.7109 28.6338 29.9835 28.6338C30.2562 28.6338 30.5287 28.5431 30.7532 28.3616L53.0839 10.3109C55.5795 10.5054 57.551 12.5968 57.551 15.1413V45.8582Z" fill="black" fill-opacity="0.74"/>
</svg>
